<svg xmlns="http://ww.w3.org/2000/svg" xmlns:xlink="http://www.w3.org/1999/xlink" height="200" width="400"><polygon points="0,200 0,100 1,99 2,98 3,97 4,98 5,99 6,98 7,97 8,98 9,99 10,98 11,99 12,100 13,99 14,98 15,97 16,98 17,99 18,100 19,101 20,100 21,101 22,102 23,103 24,104 25,105 26,106 27,107 28,108 29,109 30,110 31,109 32,108 33,107 34,106 35,105 36,106 37,105 38,104 39,105 40,104 41,105 42,104 43,105 44,104 45,103 46,102 47,103 48,102 49,103 50,102 51,103 52,104 53,103 54,104 55,105 56,106 57,105 58,104 59,103 60,102 61,101 62,100 63,99 64,98 65,99 66,100 67,101 68,100 69,99 70,98 71,97 72,96 73,95 74,96 75,97 76,98 77,97 78,98 79,97 80,98 81,99 82,98 83,97 84,98 85,97 86,98 87,97 88,96 89,95 90,96 91,95 92,96 93,97 94,96 95,97 96,98 97,99 98,98 99,97 100,98 101,99 102,100 103,101 104,102 105,103 106,104 107,103 108,102 109,101 110,100 111,101 112,100 113,99 114,100 115,99 116,98 117,99 118,100 119,99 120,98 121,97 122,96 123,97 124,96 125,97 126,96 127,97 128,98 129,97 130,96 131,97 132,98 133,99 134,98 135,97 136,98 137,97 138,98 139,97 140,98 141,99 142,100 143,99 144,100 145,101 146,102 147,101 148,100 149,99 150,98 151,99 152,100 153,99 154,98 155,99 156,100 157,101 158,102 159,103 160,104 161,103 162,104 163,103 164,102 165,103 166,104 167,105 168,104 169,103 170,102 171,101 172,102 173,103 174,102 175,101 176,102 177,101 178,100 179,99 180,100 181,101 182,100 183,99 184,100 185,101 186,102 187,101 188,100 189,101 190,102 191,101 192,102 193,103 194,102 195,101 196,100 197,101 198,100 199,101 200,102 201,103 202,102 203,101 204,100 205,99 206,100 207,99 208,100 209,99 210,98 211,99 212,98 213,99 214,98 215,97 216,96 217,97 218,96 219,95 220,96 221,97 222,98 223,97 224,98 225,97 226,98 227,97 228,98 229,97 230,98 231,97 232,96 233,97 234,96 235,95 236,94 237,93 238,94 239,93 240,92 241,91 242,92 243,91 244,90 245,89 246,88 247,89 248,90 249,91 250,90 251,91 252,90 253,91 254,92 255,93 256,92 257,91 258,90 259,89 260,88 261,87 262,88 263,87 264,88 265,89 266,90 267,89 268,90 269,89 270,90 271,91 272,92 273,91 274,92 275,91 276,90 277,91 278,92 279,93 280,94 281,95 282,94 283,93 284,94 285,95 286,94 287,93 288,94 289,95 290,94 291,95 292,96 293,97 294,98 295,97 296,96 297,97 298,98 299,97 300,96 301,97 302,98 303,97 304,98 305,99 306,98 307,97 308,96 309,97 310,98 311,97 312,98 313,97 314,96 315,97 316,98 317,99 318,98 319,99 320,100 321,99 322,100 323,99 324,98 325,97 326,98 327,97 328,98 329,99 330,98 331,97 332,96 333,95 334,96 335,97 336,98 337,99 338,100 339,99 340,100 341,101 342,100 343,99 344,98 345,99 346,100 347,99 348,98 349,97 350,98 351,97 352,98 353,99 354,98 355,99 356,100 357,99 358,98 359,97 360,98 361,99 362,100 363,99 364,98 365,97 366,98 367,97 368,96 369,97 370,96 371,95 372,94 373,93 374,92 375,93 376,92 377,93 378,94 379,93 380,94 381,95 382,96 383,97 384,98 385,99 386,100 387,99 388,98 389,97 390,96 391,97 392,96 393,97 394,96 395,97 396,98 397,99 398,100 399,99 400,200 " style="fill:rgb(59,67,61);stroke:rgb(0,0,0)"></polygon><polygon points="0,200 0,100 1,101 2,100 3,101 4,100 5,99 6,98 7,97 8,98 9,97 10,96 11,95 12,96 13,97 14,96 15,95 16,96 17,95 18,96 19,95 20,94 21,93 22,92 23,91 24,92 25,93 26,92 27,93 28,92 29,91 30,90 31,91 32,92 33,91 34,92 35,91 36,90 37,89 38,88 39,89 40,88 41,89 42,88 43,89 44,90 45,91 46,90 47,91 48,92 49,93 50,94 51,93 52,92 53,93 54,92 55,93 56,94 57,95 58,96 59,97 60,98 61,99 62,100 63,99 64,100 65,101 66,100 67,101 68,102 69,101 70,102 71,101 72,102 73,103 74,102 75,101 76,100 77,101 78,102 79,103 80,102 81,101 82,100 83,101 84,102 85,101 86,102 87,103 88,102 89,103 90,102 91,103 92,104 93,103 94,102 95,101 96,100 97,99 98,98 99,97 100,98 101,99 102,98 103,97 104,96 105,95 106,94 107,95 108,94 109,93 110,92 111,91 112,92 113,93 114,92 115,91 116,92 117,91 118,92 119,93 120,92 121,93 122,92 123,91 124,92 125,93 126,92 127,93 128,94 129,95 130,96 131,97 132,96 133,97 134,96 135,95 136,94 137,93 138,94 139,95 140,94 141,95 142,94 143,93 144,94 145,93 146,94 147,93 148,92 149,93 150,92 151,93 152,92 153,93 154,92 155,93 156,94 157,93 158,94 159,95 160,96 161,97 162,96 163,97 164,96 165,95 166,94 167,95 168,94 169,93 170,92 171,93 172,92 173,91 174,90 175,91 176,92 177,91 178,90 179,89 180,90 181,91 182,90 183,91 184,90 185,89 186,90 187,91 188,92 189,91 190,90 191,91 192,92 193,91 194,90 195,91 196,90 197,91 198,90 199,89 200,88 201,89 202,90 203,91 204,90 205,91 206,92 207,91 208,92 209,93 210,92 211,93 212,94 213,95 214,94 215,93 216,92 217,93 218,94 219,93 220,92 221,93 222,94 223,93 224,92 225,93 226,92 227,93 228,92 229,93 230,92 231,93 232,92 233,91 234,92 235,91 236,92 237,93 238,94 239,93 240,94 241,93 242,94 243,95 244,96 245,95 246,94 247,93 248,94 249,95 250,94 251,95 252,94 253,93 254,92 255,93 256,92 257,93 258,94 259,93 260,94 261,95 262,96 263,97 264,96 265,97 266,98 267,97 268,96 269,97 270,96 271,97 272,96 273,97 274,98 275,97 276,98 277,97 278,98 279,99 280,98 281,97 282,96 283,97 284,98 285,99 286,98 287,99 288,100 289,99 290,98 291,99 292,100 293,99 294,100 295,101 296,100 297,99 298,100 299,101 300,100 301,101 302,102 303,103 304,102 305,101 306,102 307,103 308,102 309,101 310,100 311,99 312,98 313,99 314,100 315,101 316,102 317,101 318,102 319,103 320,102 321,101 322,102 323,101 324,102 325,103 326,102 327,103 328,104 329,105 330,104 331,105 332,106 333,107 334,108 335,109 336,110 337,109 338,108 339,107 340,106 341,105 342,104 343,103 344,104 345,103 346,104 347,103 348,102 349,103 350,102 351,103 352,102 353,103 354,104 355,105 356,104 357,105 358,106 359,105 360,106 361,105 362,106 363,107 364,106 365,107 366,106 367,107 368,108 369,107 370,108 371,109 372,108 373,107 374,108 375,109 376,108 377,109 378,110 379,111 380,112 381,111 382,112 383,111 384,112 385,113 386,114 387,115 388,116 389,115 390,116 391,117 392,118 393,119 394,120 395,119 396,118 397,119 398,120 399,121 400,200 " style="fill:rgb(203,148,179);stroke:rgb(103,48,79)"></polygon><polygon points="0,200 0,100 1,99 2,98 3,97 4,98 5,97 6,96 7,97 8,96 9,97 10,96 11,97 12,98 13,97 14,96 15,97 16,96 17,97 18,96 19,97 20,96 21,95 22,96 23,95 24,96 25,97 26,98 27,97 28,98 29,99 30,98 31,97 32,98 33,97 34,98 35,97 36,96 37,97 38,98 39,97 40,96 41,95 42,94 43,95 44,96 45,97 46,98 47,97 48,98 49,97 50,96 51,95 52,96 53,97 54,96 55,95 56,94 57,95 58,94 59,93 60,94 61,93 62,92 63,91 64,90 65,89 66,90 67,89 68,88 69,89 70,88 71,87 72,86 73,87 74,86 75,85 76,84 77,83 78,82 79,83 80,84 81,83 82,82 83,83 84,82 85,83 86,84 87,85 88,86 89,85 90,84 91,83 92,82 93,83 94,84 95,85 96,84 97,85 98,86 99,87 100,86 101,87 102,86 103,85 104,86 105,87 106,88 107,87 108,88 109,89 110,88 111,89 112,88 113,89 114,88 115,87 116,86 117,87 118,88 119,87 120,88 121,87 122,86 123,85 124,84 125,83 126,82 127,83 128,82 129,81 130,82 131,83 132,82 133,81 134,80 135,79 136,80 137,79 138,78 139,77 140,78 141,79 142,78 143,79 144,78 145,79 146,78 147,77 148,78 149,79 150,78 151,79 152,80 153,81 154,80 155,81 156,82 157,81 158,80 159,81 160,80 161,81 162,80 163,79 164,80 165,79 166,80 167,81 168,82 169,81 170,82 171,83 172,82 173,83 174,84 175,83 176,82 177,83 178,84 179,83 180,82 181,83 182,82 183,83 184,84 185,83 186,82 187,83 188,82 189,81 190,82 191,83 192,84 193,83 194,84 195,85 196,86 197,85 198,84 199,83 200,82 201,83 202,84 203,85 204,86 205,85 206,84 207,85 208,86 209,87 210,86 211,85 212,84 213,85 214,86 215,87 216,88 217,87 218,86 219,85 220,84 221,83 222,84 223,83 224,84 225,83 226,82 227,83 228,84 229,85 230,86 231,87 232,86 233,85 234,84 235,83 236,84 237,85 238,86 239,85 240,86 241,85 242,86 243,87 244,86 245,85 246,86 247,87 248,86 249,85 250,84 251,85 252,84 253,83 254,84 255,83 256,84 257,83 258,82 259,81 260,80 261,81 262,82 263,83 264,82 265,81 266,82 267,83 268,82 269,83 270,84 271,83 272,84 273,83 274,82 275,81 276,82 277,83 278,84 279,83 280,82 281,83 282,82 283,83 284,82 285,83 286,84 287,85 288,86 289,85 290,86 291,87 292,86 293,85 294,86 295,85 296,84 297,85 298,84 299,85 300,84 301,83 302,84 303,85 304,84 305,85 306,84 307,83 308,82 309,81 310,82 311,81 312,80 313,81 314,82 315,81 316,80 317,81 318,82 319,83 320,82 321,83 322,84 323,85 324,86 325,85 326,86 327,85 328,86 329,87 330,86 331,85 332,84 333,83 334,84 335,83 336,84 337,83 338,82 339,81 340,80 341,81 342,80 343,81 344,80 345,81 346,80 347,79 348,78 349,79 350,78 351,77 352,78 353,77 354,76 355,77 356,78 357,77 358,78 359,77 360,76 361,75 362,74 363,73 364,74 365,73 366,74 367,73 368,72 369,71 370,70 371,71 372,70 373,69 374,68 375,69 376,70 377,69 378,70 379,71 380,70 381,69 382,70 383,69 384,70 385,69 386,70 387,69 388,70 389,71 390,70 391,71 392,70 393,71 394,72 395,71 396,70 397,71 398,72 399,73 400,200 " style="fill:rgb(174,6,53);stroke:rgb(74,0,0)"></polygon><polygon points="0,200 0,100 1,99 2,100 3,99 4,98 5,97 6,98 7,97 8,96 9,95 10,94 11,95 12,96 13,97 14,96 15,95 16,96 17,97 18,96 19,95 20,94 21,93 22,92 23,91 24,92 25,91 26,90 27,89 28,90 29,91 30,90 31,89 32,88 33,89 34,88 35,89 36,90 37,89 38,90 39,89 40,90 41,89 42,90 43,91 44,90 45,91 46,92 47,91 48,90 49,91 50,92 51,93 52,92 53,93 54,94 55,93 56,92 57,91 58,90 59,91 60,92 61,93 62,94 63,93 64,92 65,91 66,90 67,89 68,88 69,87 70,88 71,89 72,88 73,87 74,88 75,89 76,90 77,91 78,92 79,93 80,94 81,95 82,96 83,95 84,96 85,95 86,96 87,97 88,96 89,95 90,94 91,93 92,92 93,91 94,90 95,91 96,90 97,89 98,90 99,89 100,88 101,87 102,88 103,87 104,88 105,89 106,90 107,89 108,88 109,87 110,86 111,85 112,86 113,87 114,88 115,87 116,86 117,87 118,86 119,85 120,86 121,85 122,86 123,87 124,88 125,87 126,88 127,87 128,88 129,87 130,88 131,87 132,88 133,89 134,88 135,89 136,90 137,89 138,88 139,89 140,90 141,91 142,92 143,93 144,92 145,93 146,92 147,93 148,92 149,91 150,92 151,91 152,90 153,89 154,88 155,87 156,88 157,89 158,90 159,91 160,90 161,89 162,90 163,89 164,88 165,89 166,88 167,87 168,86 169,87 170,88 171,87 172,88 173,87 174,86 175,85 176,84 177,83 178,84 179,83 180,84 181,85 182,86 183,87 184,88 185,89 186,90 187,89 188,90 189,91 190,92 191,91 192,92 193,91 194,90 195,91 196,92 197,93 198,92 199,93 200,94 201,95 202,94 203,93 204,92 205,93 206,94 207,93 208,94 209,93 210,92 211,91 212,92 213,91 214,92 215,93 216,94 217,93 218,92 219,91 220,92 221,93 222,94 223,93 224,92 225,93 226,92 227,91 228,90 229,91 230,92 231,91 232,92 233,93 234,92 235,91 236,90 237,91 238,90 239,91 240,90 241,91 242,92 243,93 244,94 245,95 246,94 247,95 248,96 249,95 250,94 251,95 252,96 253,95 254,94 255,95 256,96 257,97 258,96 259,95 260,96 261,95 262,94 263,93 264,94 265,95 266,94 267,95 268,96 269,95 270,94 271,95 272,94 273,95 274,94 275,93 276,94 277,93 278,92 279,93 280,92 281,91 282,92 283,93 284,92 285,93 286,94 287,93 288,92 289,93 290,94 291,95 292,94 293,95 294,96 295,95 296,96 297,97 298,98 299,97 300,96 301,97 302,98 303,97 304,96 305,95 306,94 307,93 308,94 309,95 310,94 311,95 312,96 313,95 314,94 315,93 316,94 317,93 318,92 319,93 320,94 321,95 322,94 323,93 324,92 325,91 326,90 327,91 328,92 329,93 330,92 331,91 332,90 333,91 334,92 335,91 336,92 337,93 338,94 339,95 340,94 341,95 342,94 343,95 344,96 345,97 346,98 347,97 348,98 349,99 350,100 351,101 352,100 353,99 354,100 355,99 356,98 357,97 358,96 359,97 360,98 361,97 362,98 363,99 364,100 365,101 366,102 367,101 368,102 369,103 370,104 371,103 372,104 373,103 374,102 375,101 376,100 377,101 378,100 379,101 380,100 381,99 382,98 383,97 384,98 385,99 386,98 387,97 388,96 389,97 390,96 391,97 392,98 393,97 394,96 395,95 396,94 397,93 398,92 399,93 400,200 " style="fill:rgb(176,89,16);stroke:rgb(76,0,0)"></polygon><polygon points="0,200 0,100 1,99 2,100 3,101 4,100 5,99 6,100 7,99 8,100 9,101 10,100 11,101 12,102 13,101 14,102 15,103 16,102 17,103 18,104 19,105 20,106 21,107 22,108 23,109 24,108 25,107 26,108 27,109 28,110 29,109 30,110 31,111 32,110 33,111 34,112 35,113 36,112 37,113 38,114 39,115 40,114 41,115 42,116 43,115 44,116 45,117 46,116 47,117 48,116 49,117 50,116 51,117 52,118 53,119 54,120 55,121 56,122 57,123 58,122 59,123 60,124 61,123 62,122 63,121 64,120 65,119 66,120 67,119 68,120 69,121 70,122 71,123 72,124 73,123 74,124 75,123 76,124 77,125 78,126 79,125 80,124 81,125 82,126 83,125 84,126 85,127 86,128 87,127 88,128 89,127 90,126 91,127 92,126 93,125 94,126 95,127 96,128 97,129 98,128 99,127 100,126 101,127 102,126 103,127 104,128 105,129 106,130 107,129 108,128 109,129 110,128 111,129 112,130 113,131 114,130 115,131 116,130 117,131 118,132 119,133 120,132 121,133 122,134 123,135 124,136 125,137 126,138 127,139 128,138 129,139 130,138 131,137 132,136 133,137 134,136 135,135 136,134 137,135 138,134 139,133 140,132 141,133 142,132 143,131 144,130 145,129 146,128 147,129 148,128 149,129 150,130 151,129 152,130 153,131 154,130 155,129 156,128 157,129 158,130 159,129 160,130 161,131 162,130 163,131 164,132 165,133 166,132 167,131 168,132 169,133 170,132 171,133 172,132 173,131 174,132 175,131 176,130 177,131 178,132 179,133 180,132 181,133 182,134 183,135 184,136 185,137 186,136 187,137 188,136 189,137 190,138 191,137 192,136 193,137 194,136 195,135 196,134 197,135 198,136 199,135 200,134 201,133 202,134 203,133 204,134 205,135 206,136 207,137 208,138 209,137 210,138 211,139 212,140 213,139 214,140 215,141 216,140 217,141 218,140 219,139 220,140 221,139 222,138 223,137 224,136 225,137 226,138 227,137 228,136 229,135 230,134 231,133 232,134 233,135 234,134 235,135 236,134 237,133 238,132 239,133 240,134 241,133 242,134 243,135 244,136 245,137 246,136 247,137 248,138 249,139 250,140 251,141 252,142 253,143 254,144 255,143 256,142 257,143 258,142 259,143 260,144 261,143 262,142 263,143 264,144 265,145 266,144 267,143 268,144 269,145 270,146 271,145 272,144 273,143 274,144 275,143 276,142 277,143 278,142 279,143 280,142 281,141 282,140 283,139 284,140 285,141 286,142 287,143 288,142 289,141 290,140 291,139 292,138 293,139 294,138 295,137 296,136 297,135 298,136 299,137 300,136 301,135 302,134 303,133 304,132 305,133 306,132 307,131 308,132 309,133 310,132 311,131 312,132 313,133 314,134 315,133 316,134 317,133 318,134 319,135 320,136 321,135 322,134 323,135 324,136 325,135 326,136 327,137 328,138 329,139 330,138 331,139 332,138 333,139 334,138 335,139 336,138 337,137 338,136 339,137 340,136 341,137 342,138 343,137 344,136 345,137 346,136 347,135 348,136 349,135 350,134 351,135 352,134 353,133 354,134 355,133 356,134 357,133 358,134 359,135 360,136 361,135 362,134 363,135 364,134 365,135 366,134 367,135 368,134 369,133 370,134 371,135 372,134 373,135 374,134 375,133 376,132 377,131 378,130 379,131 380,130 381,131 382,130 383,131 384,130 385,129 386,130 387,131 388,130 389,129 390,130 391,129 392,130 393,131 394,130 395,131 396,132 397,131 398,132 399,131 400,200 " style="fill:rgb(101,232,69);stroke:rgb(1,132,0)"></polygon><polygon points="0,200 0,100 1,99 2,98 3,97 4,98 5,99 6,98 7,97 8,96 9,95 10,94 11,95 12,94 13,93 14,92 15,93 16,94 17,93 18,92 19,91 20,90 21,91 22,90 23,91 24,92 25,91 26,92 27,93 28,94 29,93 30,92 31,93 32,94 33,93 34,92 35,91 36,90 37,91 38,90 39,91 40,90 41,89 42,88 43,87 44,88 45,89 46,88 47,87 48,88 49,89 50,88 51,87 52,88 53,87 54,86 55,87 56,86 57,85 58,86 59,87 60,88 61,87 62,86 63,85 64,86 65,85 66,84 67,85 68,86 69,85 70,86 71,87 72,86 73,87 74,86 75,85 76,86 77,87 78,86 79,85 80,84 81,85 82,86 83,87 84,88 85,87 86,88 87,87 88,86 89,85 90,84 91,83 92,82 93,81 94,82 95,81 96,82 97,81 98,80 99,79 100,78 101,79 102,78 103,77 104,78 105,79 106,78 107,79 108,80 109,81 110,80 111,79 112,80 113,81 114,82 115,81 116,80 117,79 118,78 119,79 120,80 121,81 122,82 123,81 124,82 125,83 126,82 127,83 128,82 129,81 130,80 131,79 132,78 133,77 134,76 135,77 136,78 137,79 138,80 139,81 140,80 141,81 142,82 143,83 144,84 145,83 146,82 147,83 148,84 149,85 150,86 151,87 152,86 153,85 154,84 155,83 156,82 157,83 158,84 159,85 160,84 161,83 162,82 163,83 164,84 165,85 166,84 167,83 168,82 169,81 170,82 171,83 172,84 173,83 174,82 175,83 176,84 177,85 178,84 179,85 180,84 181,85 182,84 183,83 184,82 185,81 186,80 187,81 188,82 189,83 190,82 191,83 192,82 193,81 194,82 195,83 196,84 197,83 198,82 199,83 200,84 201,83 202,84 203,83 204,84 205,85 206,84 207,85 208,86 209,85 210,86 211,85 212,84 213,83 214,82 215,81 216,80 217,79 218,78 219,77 220,78 221,77 222,78 223,79 224,80 225,79 226,78 227,77 228,76 229,77 230,78 231,79 232,80 233,79 234,80 235,79 236,78 237,77 238,78 239,77 240,78 241,77 242,78 243,79 244,80 245,81 246,82 247,83 248,84 249,85 250,84 251,83 252,82 253,83 254,84 255,83 256,82 257,83 258,82 259,83 260,84 261,83 262,84 263,83 264,84 265,83 266,84 267,85 268,84 269,83 270,84 271,83 272,82 273,81 274,80 275,79 276,78 277,77 278,76 279,75 280,74 281,75 282,76 283,77 284,76 285,77 286,78 287,79 288,80 289,79 290,78 291,77 292,78 293,77 294,78 295,77 296,78 297,77 298,78 299,79 300,78 301,79 302,80 303,81 304,82 305,81 306,82 307,83 308,82 309,81 310,80 311,81 312,82 313,81 314,82 315,81 316,82 317,83 318,84 319,83 320,82 321,83 322,84 323,85 324,86 325,87 326,88 327,89 328,88 329,89 330,90 331,89 332,90 333,91 334,90 335,91 336,92 337,93 338,94 339,93 340,92 341,91 342,92 343,93 344,92 345,91 346,92 347,93 348,92 349,93 350,94 351,95 352,94 353,95 354,94 355,95 356,96 357,95 358,94 359,95 360,94 361,95 362,94 363,93 364,92 365,93 366,92 367,91 368,92 369,91 370,92 371,93 372,94 373,93 374,94 375,93 376,92 377,93 378,94 379,95 380,96 381,97 382,98 383,99 384,98 385,97 386,98 387,97 388,96 389,97 390,98 391,99 392,98 393,99 394,98 395,99 396,100 397,101 398,100 399,99 400,200 " style="fill:rgb(44,224,27);stroke:rgb(0,124,0)"></polygon><polygon points="0,200 0,100 1,99 2,100 3,101 4,102 5,103 6,102 7,101 8,102 9,101 10,100 11,99 12,100 13,101 14,102 15,101 16,102 17,101 18,102 19,103 20,102 21,103 22,104 23,103 24,102 25,103 26,102 27,103 28,102 29,101 30,102 31,103 32,104 33,103 34,104 35,105 36,104 37,103 38,102 39,101 40,102 41,101 42,102 43,103 44,104 45,105 46,106 47,107 48,106 49,107 50,106 51,107 52,108 53,107 54,108 55,107 56,106 57,107 58,106 59,107 60,106 61,107 62,106 63,107 64,106 65,107 66,108 67,107 68,106 69,107 70,108 71,107 72,106 73,105 74,104 75,105 76,106 77,107 78,106 79,107 80,108 81,109 82,110 83,111 84,112 85,111 86,110 87,109 88,110 89,111 90,112 91,113 92,112 93,113 94,112 95,111 96,110 97,109 98,108 99,107 100,108 101,107 102,108 103,107 104,106 105,105 106,106 107,105 108,104 109,103 110,104 111,103 112,104 113,103 114,104 115,103 116,102 117,103 118,104 119,103 120,104 121,103 122,102 123,103 124,102 125,101 126,100 127,99 128,100 129,101 130,102 131,103 132,102 133,103 134,104 135,105 136,106 137,107 138,108 139,109 140,108 141,109 142,110 143,111 144,112 145,113 146,114 147,115 148,114 149,115 150,116 151,117 152,116 153,117 154,118 155,117 156,118 157,119 158,118 159,117 160,116 161,117 162,118 163,119 164,120 165,119 166,118 167,117 168,116 169,117 170,116 171,115 172,116 173,115 174,116 175,117 176,116 177,117 178,118 179,119 180,118 181,117 182,118 183,119 184,120 185,121 186,120 187,119 188,118 189,119 190,118 191,119 192,118 193,117 194,116 195,117 196,116 197,115 198,116 199,117 200,118 201,117 202,116 203,115 204,114 205,113 206,114 207,113 208,112 209,113 210,112 211,111 212,110 213,109 214,108 215,109 216,108 217,107 218,108 219,109 220,110 221,111 222,112 223,113 224,114 225,113 226,114 227,113 228,112 229,113 230,114 231,113 232,112 233,113 234,114 235,113 236,114 237,115 238,116 239,115 240,114 241,113 242,114 243,115 244,114 245,115 246,114 247,113 248,114 249,115 250,116 251,115 252,116 253,115 254,116 255,115 256,114 257,113 258,112 259,113 260,114 261,115 262,114 263,115 264,114 265,115 266,116 267,115 268,116 269,115 270,116 271,117 272,116 273,117 274,118 275,117 276,118 277,117 278,116 279,115 280,116 281,115 282,114 283,115 284,116 285,115 286,114 287,113 288,112 289,113 290,112 291,113 292,112 293,113 294,112 295,113 296,114 297,115 298,116 299,117 300,118 301,117 302,116 303,115 304,116 305,117 306,116 307,117 308,116 309,117 310,118 311,119 312,118 313,119 314,118 315,119 316,118 317,119 318,118 319,119 320,118 321,119 322,118 323,117 324,116 325,117 326,116 327,115 328,116 329,115 330,116 331,117 332,118 333,117 334,116 335,115 336,114 337,113 338,112 339,113 340,112 341,111 342,112 343,113 344,112 345,111 346,110 347,109 348,110 349,109 350,110 351,111 352,112 353,113 354,112 355,113 356,114 357,115 358,116 359,115 360,116 361,117 362,118 363,117 364,118 365,117 366,116 367,115 368,116 369,117 370,118 371,117 372,116 373,115 374,116 375,115 376,116 377,115 378,114 379,113 380,112 381,111 382,110 383,109 384,110 385,109 386,110 387,111 388,110 389,109 390,108 391,109 392,110 393,111 394,112 395,113 396,112 397,111 398,110 399,109 400,200 " style="fill:rgb(73,93,3);stroke:rgb(0,0,0)"></polygon><polygon points="0,200 0,100 1,99 2,100 3,101 4,102 5,101 6,102 7,103 8,104 9,103 10,104 11,105 12,106 13,105 14,104 15,103 16,104 17,105 18,104 19,103 20,104 21,105 22,106 23,107 24,106 25,107 26,108 27,107 28,108 29,109 30,108 31,109 32,108 33,109 34,108 35,107 36,108 37,107 38,108 39,107 40,108 41,107 42,106 43,105 44,106 45,105 46,106 47,107 48,106 49,105 50,104 51,105 52,106 53,107 54,108 55,107 56,108 57,107 58,106 59,105 60,104 61,105 62,104 63,103 64,104 65,103 66,102 67,103 68,102 69,101 70,100 71,99 72,98 73,97 74,98 75,97 76,96 77,95 78,94 79,95 80,96 81,95 82,94 83,95 84,96 85,97 86,98 87,99 88,98 89,97 90,98 91,97 92,98 93,97 94,98 95,99 96,98 97,99 98,100 99,99 100,100 101,99 102,100 103,101 104,100 105,101 106,102 107,101 108,100 109,101 110,100 111,101 112,102 113,101 114,102 115,103 116,104 117,105 118,104 119,105 120,106 121,105 122,104 123,103 124,102 125,103 126,102 127,101 128,100 129,99 130,100 131,99 132,100 133,101 134,100 135,101 136,102 137,101 138,102 139,101 140,100 141,101 142,100 143,101 144,100 145,99 146,100 147,99 148,100 149,101 150,100 151,101 152,102 153,101 154,100 155,101 156,102 157,103 158,102 159,101 160,102 161,103 162,104 163,103 164,104 165,105 166,106 167,107 168,106 169,105 170,106 171,105 172,106 173,107 174,106 175,107 176,106 177,105 178,104 179,103 180,102 181,101 182,100 183,99 184,100 185,101 186,100 187,99 188,100 189,101 190,102 191,103 192,102 193,101 194,100 195,101 196,102 197,103 198,102 199,101 200,100 201,99 202,98 203,99 204,100 205,101 206,100 207,99 208,100 209,101 210,100 211,99 212,100 213,99 214,98 215,99 216,100 217,101 218,102 219,101 220,100 221,99 222,98 223,97 224,98 225,99 226,100 227,101 228,100 229,99 230,98 231,99 232,98 233,97 234,98 235,99 236,100 237,101 238,102 239,101 240,100 241,99 242,98 243,97 244,98 245,97 246,96 247,97 248,96 249,97 250,98 251,99 252,98 253,97 254,98 255,99 256,100 257,99 258,98 259,97 260,96 261,95 262,94 263,93 264,94 265,95 266,94 267,95 268,96 269,97 270,98 271,99 272,100 273,101 274,102 275,103 276,102 277,103 278,104 279,105 280,104 281,103 282,102 283,101 284,102 285,103 286,104 287,105 288,106 289,107 290,106 291,107 292,106 293,105 294,106 295,105 296,106 297,105 298,104 299,105 300,106 301,105 302,106 303,105 304,106 305,105 306,104 307,103 308,102 309,101 310,100 311,101 312,102 313,101 314,102 315,103 316,102 317,101 318,100 319,101 320,102 321,101 322,102 323,101 324,102 325,103 326,104 327,105 328,104 329,105 330,104 331,105 332,106 333,105 334,106 335,107 336,108 337,109 338,110 339,111 340,112 341,113 342,112 343,111 344,112 345,113 346,112 347,111 348,112 349,111 350,110 351,111 352,112 353,111 354,110 355,109 356,108 357,107 358,108 359,109 360,110 361,111 362,110 363,111 364,110 365,109 366,110 367,109 368,108 369,109 370,110 371,109 372,108 373,109 374,108 375,107 376,108 377,107 378,106 379,107 380,108 381,109 382,108 383,107 384,108 385,107 386,108 387,109 388,110 389,111 390,112 391,113 392,114 393,113 394,114 395,115 396,116 397,115 398,114 399,113 400,200 " style="fill:rgb(203,37,0);stroke:rgb(103,0,0)"></polygon><polygon points="0,200 0,100 1,99 2,100 3,99 4,98 5,97 6,96 7,95 8,96 9,97 10,98 11,97 12,96 13,97 14,96 15,97 16,96 17,97 18,98 19,97 20,96 21,95 22,94 23,93 24,92 25,93 26,92 27,93 28,94 29,93 30,94 31,93 32,92 33,93 34,92 35,91 36,90 37,89 38,88 39,87 40,88 41,87 42,86 43,85 44,84 45,85 46,86 47,87 48,88 49,89 50,90 51,91 52,90 53,91 54,90 55,91 56,90 57,91 58,92 59,91 60,90 61,89 62,88 63,87 64,88 65,87 66,86 67,85 68,86 69,85 70,84 71,83 72,84 73,83 74,82 75,83 76,82 77,83 78,84 79,85 80,86 81,85 82,84 83,85 84,86 85,85 86,86 87,85 88,84 89,83 90,82 91,83 92,84 93,83 94,82 95,83 96,82 97,81 98,82 99,81 100,80 101,79 102,80 103,79 104,78 105,77 106,78 107,77 108,78 109,79 110,80 111,81 112,82 113,81 114,82 115,81 116,80 117,79 118,80 119,81 120,82 121,83 122,82 123,81 124,80 125,81 126,80 127,81 128,82 129,83 130,82 131,81 132,80 133,81 134,80 135,79 136,78 137,79 138,78 139,77 140,76 141,75 142,74 143,75 144,76 145,77 146,76 147,75 148,76 149,77 150,76 151,75 152,76 153,77 154,78 155,77 156,78 157,77 158,78 159,77 160,76 161,77 162,76 163,77 164,76 165,77 166,76 167,77 168,76 169,77 170,78 171,77 172,76 173,77 174,76 175,75 176,74 177,73 178,72 179,73 180,72 181,73 182,72 183,71 184,72 185,71 186,70 187,71 188,72 189,73 190,74 191,75 192,74 193,73 194,72 195,71 196,72 197,73 198,72 199,73 200,72 201,73 202,72 203,71 204,70 205,69 206,68 207,69 208,68 209,69 210,68 211,67 212,66 213,67 214,66 215,67 216,68 217,69 218,70 219,71 220,72 221,71 222,72 223,73 224,74 225,73 226,72 227,73 228,74 229,73 230,74 231,75 232,74 233,75 234,76 235,77 236,78 237,77 238,76 239,77 240,76 241,77 242,76 243,75 244,74 245,73 246,72 247,71 248,70 249,69 250,68 251,67 252,68 253,69 254,68 255,69 256,68 257,67 258,66 259,67 260,68 261,69 262,70 263,69 264,70 265,71 266,72 267,73 268,74 269,73 270,72 271,71 272,70 273,71 274,72 275,73 276,74 277,73 278,72 279,71 280,72 281,73 282,72 283,71 284,72 285,73 286,74 287,73 288,74 289,73 290,74 291,73 292,74 293,73 294,74 295,73 296,72 297,71 298,72 299,71 300,72 301,73 302,72 303,73 304,72 305,73 306,72 307,73 308,72 309,73 310,74 311,73 312,74 313,73 314,72 315,73 316,72 317,73 318,72 319,73 320,74 321,73 322,74 323,73 324,74 325,75 326,74 327,75 328,74 329,73 330,72 331,73 332,72 333,73 334,72 335,71 336,72 337,71 338,72 339,73 340,74 341,75 342,76 343,75 344,74 345,73 346,74 347,75 348,76 349,75 350,74 351,73 352,74 353,75 354,76 355,75 356,76 357,75 358,74 359,73 360,74 361,73 362,74 363,75 364,74 365,75 366,74 367,75 368,76 369,77 370,76 371,75 372,74 373,73 374,74 375,73 376,72 377,71 378,70 379,69 380,68 381,69 382,68 383,67 384,66 385,65 386,64 387,63 388,64 389,63 390,64 391,65 392,66 393,65 394,66 395,67 396,68 397,67 398,68 399,67 400,200 " style="fill:rgb(255,115,32);stroke:rgb(155,15,0)"></polygon><polygon points="0,200 0,100 1,99 2,100 3,99 4,98 5,97 6,96 7,95 8,94 9,93 10,94 11,95 12,96 13,95 14,94 15,93 16,94 17,95 18,94 19,93 20,92 21,91 22,92 23,93 24,94 25,93 26,94 27,95 28,96 29,95 30,94 31,95 32,94 33,93 34,92 35,91 36,90 37,89 38,90 39,91 40,90 41,91 42,90 43,89 44,88 45,89 46,88 47,87 48,88 49,87 50,86 51,85 52,84 53,85 54,86 55,85 56,86 57,85 58,86 59,85 60,86 61,87 62,86 63,87 64,86 65,85 66,86 67,85 68,86 69,85 70,84 71,85 72,86 73,85 74,86 75,85 76,84 77,85 78,84 79,83 80,82 81,81 82,80 83,81 84,82 85,83 86,82 87,83 88,82 89,81 90,80 91,79 92,80 93,79 94,80 95,79 96,80 97,81 98,82 99,83 100,84 101,85 102,86 103,87 104,88 105,87 106,88 107,87 108,86 109,85 110,84 111,83 112,84 113,83 114,84 115,85 116,84 117,83 118,84 119,85 120,84 121,85 122,84 123,83 124,82 125,81 126,80 127,79 128,80 129,79 130,78 131,79 132,80 133,81 134,80 135,81 136,80 137,81 138,82 139,83 140,84 141,83 142,84 143,85 144,84 145,83 146,82 147,83 148,82 149,83 150,82 151,83 152,82 153,83 154,84 155,83 156,82 157,83 158,82 159,81 160,82 161,83 162,82 163,83 164,82 165,81 166,82 167,83 168,84 169,85 170,84 171,85 172,84 173,85 174,86 175,85 176,84 177,85 178,84 179,83 180,82 181,83 182,82 183,83 184,84 185,85 186,84 187,85 188,86 189,85 190,84 191,83 192,84 193,83 194,84 195,83 196,84 197,83 198,84 199,83 200,82 201,83 202,84 203,83 204,82 205,81 206,82 207,81 208,80 209,81 210,82 211,83 212,84 213,83 214,82 215,81 216,80 217,81 218,80 219,81 220,80 221,81 222,80 223,81 224,82 225,81 226,80 227,81 228,82 229,81 230,82 231,81 232,82 233,81 234,82 235,81 236,80 237,79 238,80 239,79 240,78 241,79 242,78 243,77 244,76 245,75 246,76 247,77 248,76 249,75 250,74 251,75 252,74 253,75 254,76 255,75 256,74 257,75 258,74 259,75 260,74 261,75 262,76 263,77 264,76 265,75 266,76 267,75 268,76 269,77 270,78 271,79 272,80 273,79 274,78 275,77 276,78 277,77 278,76 279,75 280,74 281,75 282,74 283,73 284,74 285,73 286,72 287,73 288,74 289,75 290,76 291,77 292,76 293,77 294,76 295,75 296,74 297,75 298,74 299,75 300,76 301,75 302,74 303,75 304,76 305,77 306,78 307,77 308,76 309,77 310,76 311,77 312,76 313,75 314,74 315,73 316,72 317,71 318,72 319,71 320,72 321,71 322,70 323,69 324,68 325,69 326,70 327,71 328,70 329,71 330,72 331,73 332,72 333,73 334,72 335,73 336,72 337,71 338,72 339,71 340,70 341,69 342,70 343,71 344,70 345,71 346,72 347,73 348,74 349,75 350,76 351,77 352,76 353,75 354,74 355,73 356,74 357,73 358,72 359,71 360,70 361,69 362,68 363,69 364,70 365,69 366,70 367,69 368,70 369,71 370,70 371,71 372,72 373,73 374,74 375,73 376,74 377,73 378,72 379,71 380,72 381,71 382,72 383,73 384,72 385,73 386,74 387,73 388,74 389,75 390,74 391,75 392,74 393,73 394,74 395,73 396,72 397,71 398,72 399,73 400,200 " style="fill:rgb(69,126,248);stroke:rgb(0,26,148)"></polygon></svg>